# xmcd
#
# Track frame offsets: 
#        150
#        25192
#        49480
#        70745
#        83327
#        100002
#        112697
#        135767
#        152535
#        168482
#        180005
#
# Disc length: 2821 seconds
#
# Revision: 8
# Processed by: cddbd v1.5.2PL0 Copyright (c) Steve Scherf et al.
# Submitted via: ExactAudioCopy v0.99pb5
#
DISCID=6d0b030b
DTITLE=Winter, Johnny - Second Winter
DYEAR=1969
DGENRE=Blues
TTITLE0=Memory pain
TTITLE1=I'm not sure
TTITLE2=The good love
TTITLE3=Slippin' and slidin'
TTITLE4=Miss Ann
TTITLE5=Johnny B. Goode
TTITLE6=Highway 61 revisited
TTITLE7=I love everybody
TTITLE8=Hustled down in Texas
TTITLE9=I hate everybody
TTITLE10=Fast Life Rider [#][*]
EXTD=YEAR: 1969
EXTT0=
EXTT1=
EXTT2=
EXTT3=
EXTT4=
EXTT5=
EXTT6=
EXTT7=
EXTT8=
EXTT9=
EXTT10=
PLAYORDER=
